# xmcd
#
# Track frame offsets: 
#        150
#        16477
#        33244
#        49118
#        60456
#        78411
#        100030
#        111823
#        128599
#        148333
#        162826
#        180351
#        193623
#
# Disc length: 2815 seconds
#
# Revision: 0
# Processed by: cddbd v1.5.2PL0 Copyright (c) Steve Scherf et al.
# Submitted via: ExactAudioCopy v0.95b4
#
DISCID=a20afd0d
DTITLE=Chicken Legs Weaver - Silk Ripped Dress
DYEAR=2007
DGENRE=Alt. Rock
TTITLE0=Rolling Wheel
TTITLE1=Before The Fall
TTITLE2=Street Cleaner
TTITLE3=Jon The Revelator
TTITLE4=Silk Ripped Dress
TTITLE5=Monday Man
TTITLE6=The Testimony Of Jarvis Lum
TTITLE7=Steelworkers Daughter
TTITLE8=Cord Cut Cord
TTITLE9=Wild Town
TTITLE10=Whisky Soaked Roses
TTITLE11=Down In The Dirt
TTITLE12=White Canyon
EXTD=
EXTT0=
EXTT1=
EXTT2=
EXTT3=
EXTT4=
EXTT5=
EXTT6=
EXTT7=
EXTT8=
EXTT9=
EXTT10=
EXTT11=
EXTT12=
PLAYORDER=
